<?xml version="1.0" encoding="UTF-8" standalone="no"?>
<!DOCTYPE svg PUBLIC "-//W3C//DTD SVG 1.1//EN"
 "http://www.w3.org/Graphics/SVG/1.1/DTD/svg11.dtd">
<!-- Generated by graphviz version 2.40.1 (20161225.0304)
 -->
<!-- Title: state transitions Pages: 1 -->
<svg width="274pt" height="680pt"
 viewBox="0.00 0.00 274.00 680.00" xmlns="http://www.w3.org/2000/svg" xmlns:xlink="http://www.w3.org/1999/xlink">
<g id="graph0" class="graph" transform="scale(1 1) rotate(0) translate(4 676)">
<title>state transitions</title>
<polygon fill="#ffffff" stroke="transparent" points="-4,4 -4,-676 270,-676 270,4 -4,4"/>
<g id="clust1" class="cluster state regular">
<title>cluster_next_state</title>
<path fill="none" stroke="#000000" stroke-width="2" d="M20,-8C20,-8 246,-8 246,-8 252,-8 258,-14 258,-20 258,-20 258,-652 258,-652 258,-658 252,-664 246,-664 246,-664 20,-664 20,-664 14,-664 8,-658 8,-652 8,-652 8,-20 8,-20 8,-14 14,-8 20,-8"/>
<text text-anchor="start" x="105.8208" y="-645.2" font-family="Helvetica,sans-Serif" font-size="12.00" fill="#000000">next_state</text>
</g>
<!-- next_state -->
<!-- IDLE -->
<g id="node2" class="node state regular">
<title>IDLE</title>
<polygon fill="#ffffff" fill-opacity="0.003922" stroke="transparent" stroke-width="2" points="124,-626 68,-626 68,-590 124,-590 124,-626"/>
<text text-anchor="start" x="82.6644" y="-604.2" font-family="Helvetica,sans-Serif" font-size="12.00" fill="#000000">IDLE</text>
<path fill="none" stroke="#000000" stroke-width="2" d="M80.3333,-591C80.3333,-591 111.6667,-591 111.6667,-591 117.3333,-591 123,-596.6667 123,-602.3333 123,-602.3333 123,-613.6667 123,-613.6667 123,-619.3333 117.3333,-625 111.6667,-625 111.6667,-625 80.3333,-625 80.3333,-625 74.6667,-625 69,-619.3333 69,-613.6667 69,-613.6667 69,-602.3333 69,-602.3333 69,-596.6667 74.6667,-591 80.3333,-591"/>
</g>
<!-- IDLE&#45;&gt;IDLE -->
<g id="edge2" class="edge transition">
<title>IDLE&#45;&gt;IDLE</title>
<path fill="none" stroke="#000000" d="M124.0183,-612.8247C135.888,-613.1883 146,-611.5801 146,-608 146,-605.5387 141.2205,-604.0094 134.3762,-603.4121"/>
<polygon fill="#000000" stroke="#000000" points="134.0957,-599.9049 124.0183,-603.1753 133.9356,-606.903 134.0957,-599.9049"/>
<text text-anchor="start" x="146" y="-605" font-family="Helvetica,sans-Serif" font-size="10.00" fill="#000000">not (start) &#160;&#160;</text>
</g>
<!-- STORAGE -->
<g id="node3" class="node state regular">
<title>STORAGE</title>
<polygon fill="#ffffff" fill-opacity="0.003922" stroke="transparent" stroke-width="2" points="110,-544 30,-544 30,-508 110,-508 110,-544"/>
<text text-anchor="start" x="40.6642" y="-522.2" font-family="Helvetica,sans-Serif" font-size="12.00" fill="#000000">STORAGE</text>
<path fill="none" stroke="#000000" stroke-width="2" d="M42.3333,-509C42.3333,-509 97.6667,-509 97.6667,-509 103.3333,-509 109,-514.6667 109,-520.3333 109,-520.3333 109,-531.6667 109,-531.6667 109,-537.3333 103.3333,-543 97.6667,-543 97.6667,-543 42.3333,-543 42.3333,-543 36.6667,-543 31,-537.3333 31,-531.6667 31,-531.6667 31,-520.3333 31,-520.3333 31,-514.6667 36.6667,-509 42.3333,-509"/>
</g>
<!-- IDLE&#45;&gt;STORAGE -->
<g id="edge1" class="edge transition">
<title>IDLE&#45;&gt;STORAGE</title>
<path fill="none" stroke="#000000" d="M90.2298,-589.8015C86.8973,-579.2915 82.6355,-565.8503 78.8837,-554.0177"/>
<polygon fill="#000000" stroke="#000000" points="82.1129,-552.622 75.7541,-544.1476 75.4403,-554.7378 82.1129,-552.622"/>
<text text-anchor="start" x="84" y="-564" font-family="Helvetica,sans-Serif" font-size="10.00" fill="#000000">start &#160;&#160;</text>
</g>
<!-- EXPALIGN -->
<g id="node4" class="node state regular">
<title>EXPALIGN</title>
<polygon fill="#ffffff" fill-opacity="0.003922" stroke="transparent" stroke-width="2" points="107,-462 25,-462 25,-426 107,-426 107,-462"/>
<text text-anchor="start" x="35.9928" y="-440.2" font-family="Helvetica,sans-Serif" font-size="12.00" fill="#000000">EXPALIGN</text>
<path fill="none" stroke="#000000" stroke-width="2" d="M37.3333,-427C37.3333,-427 94.6667,-427 94.6667,-427 100.3333,-427 106,-432.6667 106,-438.3333 106,-438.3333 106,-449.6667 106,-449.6667 106,-455.3333 100.3333,-461 94.6667,-461 94.6667,-461 37.3333,-461 37.3333,-461 31.6667,-461 26,-455.3333 26,-449.6667 26,-449.6667 26,-438.3333 26,-438.3333 26,-432.6667 31.6667,-427 37.3333,-427"/>
</g>
<!-- STORAGE&#45;&gt;EXPALIGN -->
<g id="edge3" class="edge transition">
<title>STORAGE&#45;&gt;EXPALIGN</title>
<path fill="none" stroke="#000000" d="M69.1123,-507.8015C68.6048,-497.3976 67.9571,-484.1215 67.3842,-472.3768"/>
<polygon fill="#000000" stroke="#000000" points="70.8684,-471.9651 66.8852,-462.1476 63.8767,-472.3063 70.8684,-471.9651"/>
<text text-anchor="middle" x="69.3895" y="-482" font-family="Helvetica,sans-Serif" font-size="10.00" fill="#000000"> </text>
</g>
<!-- MANTSWAP -->
<g id="node5" class="node state regular">
<title>MANTSWAP</title>
<polygon fill="#ffffff" fill-opacity="0.003922" stroke="transparent" stroke-width="2" points="109.5,-380 18.5,-380 18.5,-344 109.5,-344 109.5,-380"/>
<text text-anchor="start" x="29.8368" y="-358.2" font-family="Helvetica,sans-Serif" font-size="12.00" fill="#000000">MANTSWAP</text>
<path fill="none" stroke="#000000" stroke-width="2" d="M30.8333,-345C30.8333,-345 97.1667,-345 97.1667,-345 102.8333,-345 108.5,-350.6667 108.5,-356.3333 108.5,-356.3333 108.5,-367.6667 108.5,-367.6667 108.5,-373.3333 102.8333,-379 97.1667,-379 97.1667,-379 30.8333,-379 30.8333,-379 25.1667,-379 19.5,-373.3333 19.5,-367.6667 19.5,-367.6667 19.5,-356.3333 19.5,-356.3333 19.5,-350.6667 25.1667,-345 30.8333,-345"/>
</g>
<!-- EXPALIGN&#45;&gt;MANTSWAP -->
<g id="edge4" class="edge transition">
<title>EXPALIGN&#45;&gt;MANTSWAP</title>
<path fill="none" stroke="#000000" d="M65.5561,-425.8015C65.3024,-415.3976 64.9786,-402.1215 64.6921,-390.3768"/>
<polygon fill="#000000" stroke="#000000" points="68.1855,-390.0592 64.4426,-380.1476 61.1876,-390.23 68.1855,-390.0592"/>
<text text-anchor="middle" x="66.3895" y="-400" font-family="Helvetica,sans-Serif" font-size="10.00" fill="#000000"> </text>
</g>
<!-- MANTCALC -->
<g id="node6" class="node state regular">
<title>MANTCALC</title>
<polygon fill="#ffffff" fill-opacity="0.003922" stroke="transparent" stroke-width="2" points="106.5,-298 19.5,-298 19.5,-262 106.5,-262 106.5,-298"/>
<text text-anchor="start" x="30.5048" y="-276.2" font-family="Helvetica,sans-Serif" font-size="12.00" fill="#000000">MANTCALC</text>
<path fill="none" stroke="#000000" stroke-width="2" d="M31.8333,-263C31.8333,-263 94.1667,-263 94.1667,-263 99.8333,-263 105.5,-268.6667 105.5,-274.3333 105.5,-274.3333 105.5,-285.6667 105.5,-285.6667 105.5,-291.3333 99.8333,-297 94.1667,-297 94.1667,-297 31.8333,-297 31.8333,-297 26.1667,-297 20.5,-291.3333 20.5,-285.6667 20.5,-285.6667 20.5,-274.3333 20.5,-274.3333 20.5,-268.6667 26.1667,-263 31.8333,-263"/>
</g>
<!-- MANTSWAP&#45;&gt;MANTCALC -->
<g id="edge5" class="edge transition">
<title>MANTSWAP&#45;&gt;MANTCALC</title>
<path fill="none" stroke="#000000" d="M63.7781,-343.8015C63.6512,-333.3976 63.4893,-320.1215 63.3461,-308.3768"/>
<polygon fill="#000000" stroke="#000000" points="66.8431,-308.1041 63.2213,-298.1476 59.8436,-308.1896 66.8431,-308.1041"/>
<text text-anchor="middle" x="64.3895" y="-318" font-family="Helvetica,sans-Serif" font-size="10.00" fill="#000000"> </text>
</g>
<!-- MANTALIGN -->
<g id="node7" class="node state regular">
<title>MANTALIGN</title>
<polygon fill="#ffffff" fill-opacity="0.003922" stroke="transparent" stroke-width="2" points="107.5,-216 16.5,-216 16.5,-180 107.5,-180 107.5,-216"/>
<text text-anchor="start" x="27.5014" y="-194.2" font-family="Helvetica,sans-Serif" font-size="12.00" fill="#000000">MANTALIGN</text>
<path fill="none" stroke="#000000" stroke-width="2" d="M28.8333,-181C28.8333,-181 95.1667,-181 95.1667,-181 100.8333,-181 106.5,-186.6667 106.5,-192.3333 106.5,-192.3333 106.5,-203.6667 106.5,-203.6667 106.5,-209.3333 100.8333,-215 95.1667,-215 95.1667,-215 28.8333,-215 28.8333,-215 23.1667,-215 17.5,-209.3333 17.5,-203.6667 17.5,-203.6667 17.5,-192.3333 17.5,-192.3333 17.5,-186.6667 23.1667,-181 28.8333,-181"/>
</g>
<!-- MANTCALC&#45;&gt;MANTALIGN -->
<g id="edge6" class="edge transition">
<title>MANTCALC&#45;&gt;MANTALIGN</title>
<path fill="none" stroke="#000000" d="M62.7781,-261.8015C62.6512,-251.3976 62.4893,-238.1215 62.3461,-226.3768"/>
<polygon fill="#000000" stroke="#000000" points="65.8431,-226.1041 62.2213,-216.1476 58.8436,-226.1896 65.8431,-226.1041"/>
<text text-anchor="middle" x="63.3895" y="-236" font-family="Helvetica,sans-Serif" font-size="10.00" fill="#000000"> </text>
</g>
<!-- MANTALIGN&#45;&gt;MANTALIGN -->
<g id="edge8" class="edge transition">
<title>MANTALIGN&#45;&gt;MANTALIGN</title>
<path fill="none" stroke="#000000" d="M107.7453,-202.839C120.1005,-202.5837 129.5,-200.9707 129.5,-198 129.5,-195.9112 124.853,-194.4937 117.7991,-193.7474"/>
<polygon fill="#000000" stroke="#000000" points="117.9322,-190.2493 107.7453,-193.161 117.5245,-197.2374 117.9322,-190.2493"/>
<text text-anchor="start" x="129.5" y="-195" font-family="Helvetica,sans-Serif" font-size="10.00" fill="#000000">not (mantC[24] == 1) &#160;&#160;</text>
</g>
<!-- OUTPUT -->
<g id="node8" class="node state regular">
<title>OUTPUT</title>
<polygon fill="#ffffff" fill-opacity="0.003922" stroke="transparent" stroke-width="2" points="161.5,-134 90.5,-134 90.5,-98 161.5,-98 161.5,-134"/>
<text text-anchor="start" x="101.8376" y="-112.2" font-family="Helvetica,sans-Serif" font-size="12.00" fill="#000000">OUTPUT</text>
<path fill="none" stroke="#000000" stroke-width="2" d="M102.8333,-99C102.8333,-99 149.1667,-99 149.1667,-99 154.8333,-99 160.5,-104.6667 160.5,-110.3333 160.5,-110.3333 160.5,-121.6667 160.5,-121.6667 160.5,-127.3333 154.8333,-133 149.1667,-133 149.1667,-133 102.8333,-133 102.8333,-133 97.1667,-133 91.5,-127.3333 91.5,-121.6667 91.5,-121.6667 91.5,-110.3333 91.5,-110.3333 91.5,-104.6667 97.1667,-99 102.8333,-99"/>
</g>
<!-- MANTALIGN&#45;&gt;OUTPUT -->
<g id="edge7" class="edge transition">
<title>MANTALIGN&#45;&gt;OUTPUT</title>
<path fill="none" stroke="#000000" d="M76.2037,-179.8015C84.821,-168.7606 95.9628,-154.4851 105.5217,-142.2378"/>
<polygon fill="#000000" stroke="#000000" points="108.4424,-144.1842 111.836,-134.1476 102.9242,-139.8773 108.4424,-144.1842"/>
<text text-anchor="start" x="98" y="-154" font-family="Helvetica,sans-Serif" font-size="10.00" fill="#000000">mantC[24] == 1 &#160;&#160;</text>
</g>
<!-- STOP -->
<g id="node9" class="node state regular">
<title>STOP</title>
<polygon fill="#ffffff" fill-opacity="0.003922" stroke="transparent" stroke-width="2" points="202,-52 146,-52 146,-16 202,-16 202,-52"/>
<text text-anchor="start" x="157.6644" y="-30.2" font-family="Helvetica,sans-Serif" font-size="12.00" fill="#000000">STOP</text>
<path fill="none" stroke="#000000" stroke-width="2" d="M158.3333,-17C158.3333,-17 189.6667,-17 189.6667,-17 195.3333,-17 201,-22.6667 201,-28.3333 201,-28.3333 201,-39.6667 201,-39.6667 201,-45.3333 195.3333,-51 189.6667,-51 189.6667,-51 158.3333,-51 158.3333,-51 152.6667,-51 147,-45.3333 147,-39.6667 147,-39.6667 147,-28.3333 147,-28.3333 147,-22.6667 152.6667,-17 158.3333,-17"/>
</g>
<!-- OUTPUT&#45;&gt;STOP -->
<g id="edge9" class="edge transition">
<title>OUTPUT&#45;&gt;STOP</title>
<path fill="none" stroke="#000000" d="M136.6528,-97.8015C142.9914,-86.973 151.1514,-73.033 158.2264,-60.9466"/>
<polygon fill="#000000" stroke="#000000" points="161.3457,-62.5459 163.377,-52.1476 155.3046,-59.0096 161.3457,-62.5459"/>
<text text-anchor="middle" x="154.3895" y="-72" font-family="Helvetica,sans-Serif" font-size="10.00" fill="#000000"> </text>
</g>
<!-- STOP&#45;&gt;IDLE -->
<g id="edge10" class="edge transition">
<title>STOP&#45;&gt;IDLE</title>
<path fill="none" stroke="#000000" d="M202.3543,-37.9122C223.593,-42.6276 249,-52.8892 249,-75 249,-171.5 249,-171.5 249,-171.5 249,-237.9504 247,-254.5496 247,-321 247,-567 247,-567 247,-567 247,-590.3743 178.7611,-600.8505 134.0298,-605.2069"/>
<polygon fill="#000000" stroke="#000000" points="133.689,-601.7233 124.0481,-606.1167 134.3245,-608.6944 133.689,-601.7233"/>
<text text-anchor="middle" x="248.3895" y="-318" font-family="Helvetica,sans-Serif" font-size="10.00" fill="#000000"> </text>
</g>
</g>
</svg>
